<svg xmlns="http://www.w3.org/2000/svg" viewBox="0 0 30 30"><defs><style>.cls-1{fill:#8a9aa7;}</style></defs><title>icon-bbb</title><g id="Layer_3" data-name="Layer 3"><path class="cls-1" d="M28.32,2.39H7.3a1,1,0,1,0,0,1.93h21a1,1,0,1,0,0-1.93Z"/><path class="cls-1" d="M21.32,10.59H7.3a1,1,0,1,0,0,1.93h14a1,1,0,0,0,0-1.93Z"/><path class="cls-1" d="M2.24,1.41a1.95,1.95,0,1,0,2,1.94A1.94,1.94,0,0,0,2.24,1.41Z"/><circle class="cls-1" cx="2.24" cy="11.56" r="1.95"/><circle class="cls-1" cx="2.24" cy="19.57" r="1.95"/><path class="cls-1" d="M14.31,26.82h-7a1,1,0,1,0,0,1.93h7a1,1,0,0,0,0-1.93Z"/><circle class="cls-1" cx="2.24" cy="27.78" r="1.95"/><path class="cls-1" d="M25.32,18.6H7.3a1,1,0,1,0,0,1.93h18a1,1,0,1,0,0-1.93Z"/></g></svg>