<svg xmlns="http://www.w3.org/2000/svg" viewBox="0 0 30 30"><defs><style>.cls-1{fill:#8a9aa7;}.cls-2{fill:none;}</style></defs><title>icon-bbb</title><g id="Layer_3" data-name="Layer 3"><path class="cls-1" d="M15.73,21.82a.85.85,0,0,1-.85-.85V18h-3a.85.85,0,0,1,0-1.69h3v-3a.85.85,0,0,1,1.69,0v3h3a.85.85,0,0,1,0,1.69h-3v3A.85.85,0,0,1,15.73,21.82Z"/><path class="cls-2" d="M20.85,7h3.28L20.19,3.1V6.39A.66.66,0,0,0,20.85,7Z"/><path class="cls-2" d="M20.85,8.86a2.48,2.48,0,0,1-2.48-2.48V1.82H6.76a.66.66,0,0,0-.66.66v25a.66.66,0,0,0,.66.66h18a.66.66,0,0,0,.66-.66V8.86Z"/><path class="cls-1" d="M26.51,6.85,19.66,0H6.76A2.48,2.48,0,0,0,4.28,2.48v25A2.48,2.48,0,0,0,6.76,30h18a2.48,2.48,0,0,0,2.48-2.48V8.6A2.49,2.49,0,0,0,26.51,6.85ZM20.19,3.1,24.13,7H20.85a.66.66,0,0,1-.66-.66Zm4.57,25.08h-18a.66.66,0,0,1-.66-.66v-25a.66.66,0,0,1,.66-.66H18.38V6.39a2.48,2.48,0,0,0,2.48,2.48h4.57V27.52A.66.66,0,0,1,24.76,28.18Z"/></g></svg>