<svg xmlns="http://www.w3.org/2000/svg" viewBox="0 0 30 30"><defs><style>.cls-1{fill:#8a9aa7;}</style></defs><title>icon-bbb</title><g id="Layer_3" data-name="Layer 3"><path class="cls-1" d="M15,5.11a.83.83,0,0,1-.74.83,9,9,0,0,0-8.2,8.91v8l3.14-3.14a.74.74,0,0,1,1.05,1L5.94,25.07a.82.82,0,0,1-.26.26l-.44.44-.44-.44a.82.82,0,0,1-.26-.26L.21,20.74a.76.76,0,0,1,0-1.05.74.74,0,0,1,1,0L4.4,22.83v-8A10.64,10.64,0,0,1,14.1,4.27a.85.85,0,0,1,.93.84Z"/><path class="cls-1" d="M15,24.89a.83.83,0,0,1,.74-.83,9,9,0,0,0,8.2-8.91v-8l-3.14,3.14a.74.74,0,0,1-1.05-1l4.33-4.33a.82.82,0,0,1,.26-.26l.44-.44.44.44a.82.82,0,0,1,.26.26l4.33,4.33a.76.76,0,0,1,0,1.05.74.74,0,0,1-1,0L25.6,7.17v8a10.64,10.64,0,0,1-9.7,10.59.85.85,0,0,1-.93-.84Z"/></g></svg>