<svg xmlns="http://www.w3.org/2000/svg" viewBox="0 0 30 30"><defs><style>.cls-1{fill:#8a9aa7;}</style></defs><g id="Layer_5" data-name="Layer 5"><path class="cls-1" d="M15,30a1.91,1.91,0,0,1-1.35-.56L13.14,29a1.89,1.89,0,0,1-.56-1.34V19H6a1.91,1.91,0,0,1-1.9-1.9V15.2c0-1.67,1.51-2.38,2.61-2.9s1.66-.83,1.66-1.38V4.75H7.88A2.38,2.38,0,1,1,7.88,0H22.12a2.38,2.38,0,1,1,0,4.75h-.47v6.17c0,.81,1.14,1.45,2.15,2s2.12,1.18,2.12,2.27v1.9A1.91,1.91,0,0,1,24,19H17.33v8.63A1.93,1.93,0,0,1,16.78,29l-.48.47A1.9,1.9,0,0,1,15,30ZM7.88,1.9a.48.48,0,1,0,0,1h.47a1.9,1.9,0,0,1,1.9,1.9v6.17c0,1.81-1.59,2.56-2.75,3.1-1,.45-1.52.75-1.52,1.18v1.9h8.5V27.63l.48.47.47-.47V17.1H24V15.32a6.88,6.88,0,0,0-1.14-.73c-1.32-.73-3.13-1.74-3.13-3.67V4.75a1.9,1.9,0,0,1,1.9-1.9h.47a.48.48,0,1,0,0-1Z"/></g></svg>