<svg xmlns="http://www.w3.org/2000/svg" viewBox="0 0 30 30"><defs><style>.cls-1{fill:#8a9aa7;}</style></defs><title>bbb_mobile_icons</title><g id="Layer_5" data-name="Layer 5"><g id="Page-1"><g id="Desktop"><path id="Combined-Shape" class="cls-1" d="M18.25,26.79a3.25,3.25,0,0,1-6.5,0ZM15,0a1.07,1.07,0,0,1,1.08,1.07V2.19c5.43.47,9.73,4.45,9.84,9.41h0v1.82a22.67,22.67,0,0,0,1.18,7.26h0L27.89,23a2,2,0,0,1-1.95,2.69H4.06A2,2,0,0,1,2,23.66,2,2,0,0,1,2.11,23h0l.78-2.34a23,23,0,0,0,1.18-7.26h0V11.58c.11-4.93,4.4-8.92,9.84-9.39V1.07A1.07,1.07,0,0,1,15,0Zm0,4.29h-.18c-4.73.08-8.51,3.36-8.6,7.35h0v1.79a24.46,24.46,0,0,1-1.28,7.82h0l-.77,2.32H25.83l-.77-2.32a24.46,24.46,0,0,1-1.28-7.82h0V11.65c-.09-4.05-4-7.36-8.78-7.36Zm0,12.85a1.08,1.08,0,1,1-1.08,1.07A1.07,1.07,0,0,1,15,17.14Zm0-8.57a1.07,1.07,0,0,1,1.08,1.07h0V11l-.42,4.91H14.33L13.92,11V9.64A1.07,1.07,0,0,1,15,8.57Z"/></g></g></g></svg>