<svg xmlns="http://www.w3.org/2000/svg" viewBox="0 0 30 30"><defs><style>.cls-1{fill:#8a9aa7;}</style></defs><title>bbb-svg</title><g id="Layer_3" data-name="Layer 3"><path class="cls-1" d="M15,0a6,6,0,0,0-4.37,1.82A6,6,0,0,0,8.82,6.18v9.89A6.2,6.2,0,0,0,15,22.26a6.2,6.2,0,0,0,6.18-6.18V6.18a6,6,0,0,0-1.82-4.37A6,6,0,0,0,15,0Z"/><path class="cls-1" d="M22.24,28H16V26.86a10.66,10.66,0,0,0,9.87-10.62,1,1,0,0,0-2,0,8.67,8.67,0,0,1-8.66,8.66h-.43a8.67,8.67,0,0,1-8.66-8.66,1,1,0,0,0-2,0A10.66,10.66,0,0,0,14,26.86V28H7.76a1,1,0,1,0,0,2H22.24a1,1,0,0,0,0-2Z"/></g></svg>