<svg xmlns="http://www.w3.org/2000/svg" viewBox="0 0 30 30"><defs><style>.cls-1{fill:#8a9aa7;}</style></defs><g id="Layer_5" data-name="Layer 5"><path class="cls-1" d="M25.14,15l2.68-2.67a.74.74,0,0,0,0-1,.72.72,0,0,0-1,0L24.11,14,21.44,11.3a.72.72,0,0,0-1,0,.74.74,0,0,0,0,1L23.09,15l-2.68,2.67a.74.74,0,0,0,0,1,.71.71,0,0,0,1,0L24.11,16l2.68,2.67a.71.71,0,0,0,1,0,.74.74,0,0,0,0-1Z"/><path class="cls-1" d="M16.22,27a.71.71,0,0,1-.51-.21L8,19.11H4.39A2.42,2.42,0,0,1,2,16.69V13.31a2.42,2.42,0,0,1,2.42-2.42H8l7.68-7.68a.71.71,0,0,1,.79-.15.72.72,0,0,1,.45.67V26.27a.72.72,0,0,1-.45.67A.67.67,0,0,1,16.22,27ZM4.39,12.35a1,1,0,0,0-1,1v3.38a1,1,0,0,0,1,1H8.33a.72.72,0,0,1,.52.21l6.65,6.65v-19L8.85,12.13a.73.73,0,0,1-.52.22Z"/></g></svg>