<?xml version="1.0" standalone="no"?>
<!DOCTYPE svg PUBLIC "-//W3C//DTD SVG 1.1//EN" "http://www.w3.org/Graphics/SVG/1.1/DTD/svg11.dtd" >
<svg xmlns="http://www.w3.org/2000/svg" xmlns:xlink="http://www.w3.org/1999/xlink" version="1.1" viewBox="0 -205 1024 1024">
  <g transform="matrix(1 0 0 -1 0 819)">
   <path fill="currentColor"
d="M986.201 839.723c1.81445 0.0917969 3.67578 -0.564453 6.78906 -2.10938c4.15039 -2.06055 10.2871 -5.64062 14.8887 -10.498s7.46582 -10.5859 9.35742 -17.6934s2.43848 -15.292 1.91016 -19.3809c-0.208008 -1.61328 -0.707031 -2.87305 -11.4004 -12.9766
c1.01562 -2.84863 1.77637 -5.87891 2.25391 -9.06445v-662c0 -20 -14 -35 -34 -35h-375l222 -201c8 -7 17 -20 17 -33c0 -6 -2 -12 -7 -18s-14 -8 -23 -8c-12 0 -24 4 -32 11l-232 209v-190c0 -19 -11 -36 -32 -36c-17 0 -33 16 -33 36v190c-20 -19 -196 -174 -236 -210
c-6 -5 -16 -9 -27 -9c-9 0 -18 2 -23 9c-4 5 -6 11 -6 17c0 11 5 23 16 32l222 198h-205.703c-16.7471 -15.0254 -34.0225 -30.3701 -48.4941 -43.4863c-109.803 -99.5137 -116.382 -95.4189 -123.029 -94.6523s-14.3184 4.85645 -20.1992 9.71484
s-9.96973 10.4824 -11.7598 17.3867s-1.28027 15.082 0.509766 20.4531c1.74121 5.22363 19.6758 17.584 103.797 90.584h-71.1211c-20 0 -34 14 -34 34v666c0 20 14 34 34 34h889.512c40.1104 35.5967 42.2803 36.917 43.8457 37.3867
c0.639648 0.191406 1.23926 0.305664 1.84375 0.335938zM82 737v-106h667.365c19.333 17.3359 43.1055 38.6709 59.5977 53.4492c22.4775 20.1416 41.6709 37.3252 58.6895 52.5508h-785.652zM940 715.402c-23.2979 -21.0205 -52.0439 -46.917 -91.5449 -82.5215
c-0.576172 -0.519531 -1.50586 -1.35742 -2.08594 -1.88086h93.6309v84.4023zM82 563v-427h115.861c135.767 121.885 320.503 287.773 475.682 427h-591.543zM770.953 563c-137.552 -124.033 -323.923 -292.128 -473.947 -427h642.994v427h-169.047z" />
  </g>

</svg>
