<svg xmlns="http://www.w3.org/2000/svg" viewBox="0 0 30 30"><defs><style>.cls-1{fill:#8a9aa7;}</style></defs><title>icon-bbb</title><g id="Layer_3" data-name="Layer 3"><path class="cls-1" d="M18.08,8.51h0a.72.72,0,0,1,1,.24A12.39,12.39,0,0,1,21,15a12.39,12.39,0,0,1-1.84,6.16.72.72,0,0,1-1,.25h0a.7.7,0,0,1-.23-.93A11,11,0,0,0,19.53,15a11,11,0,0,0-1.68-5.51A.7.7,0,0,1,18.08,8.51Z"/><path class="cls-1" d="M21.45,24.54a.72.72,0,0,1-.16-1,15.54,15.54,0,0,0,0-17.17.71.71,0,0,1,.16-1h0a.71.71,0,0,1,1,.17,17,17,0,0,1,0,18.79.71.71,0,0,1-1,.17Z"/><path class="cls-1" d="M24.47,27.56a.71.71,0,0,1-.07-1,18.27,18.27,0,0,0,.07-23.15.71.71,0,0,1,.07-1h0a.71.71,0,0,1,1,.07,19.69,19.69,0,0,1-.07,25,.71.71,0,0,1-1,.07Z"/><path class="cls-1" d="M13.39,26.27a.68.68,0,0,1-.48-.2L5.69,18.86H2.27A2.27,2.27,0,0,1,0,16.59V13.41a2.27,2.27,0,0,1,2.27-2.27H5.69L12.9,3.93a.68.68,0,0,1,1.17.48V25.59a.68.68,0,0,1-.68.68ZM2.27,12.51a.91.91,0,0,0-.9.91v3.18a.91.91,0,0,0,.9.91H6a.68.68,0,0,1,.48.2l6.24,6.24V6.06L6.46,12.31a.68.68,0,0,1-.48.2Z"/></g></svg>