<svg xmlns="http://www.w3.org/2000/svg" viewBox="0 0 30 30"><defs><style>.cls-1{fill:#8a9aa7;}</style></defs><g id="Layer_5" data-name="Layer 5"><path class="cls-1" d="M22.82,8.84h0a.67.67,0,0,1,1,.22,11.7,11.7,0,0,1,1.76,5.86,11.76,11.76,0,0,1-1.73,5.82.68.68,0,0,1-1,.23h0a.66.66,0,0,1-.21-.88,10.42,10.42,0,0,0,1.56-5.17,10.35,10.35,0,0,0-1.58-5.2A.66.66,0,0,1,22.82,8.84Z"/><path class="cls-1" d="M18.72,27a.73.73,0,0,1-.52-.21l-7.68-7.68H6.88a2.42,2.42,0,0,1-2.42-2.42V13.31a2.43,2.43,0,0,1,2.42-2.42h3.64L18.2,3.21A.72.72,0,0,1,19,3.06a.71.71,0,0,1,.45.67V26.27a.71.71,0,0,1-.45.67A.66.66,0,0,1,18.72,27ZM6.88,12.35a1,1,0,0,0-1,1v3.38a1,1,0,0,0,1,1h3.94a.72.72,0,0,1,.52.21L18,24.52v-19l-6.65,6.65a.73.73,0,0,1-.52.22Z"/></g></svg>