<?xml version="1.0" standalone="no"?>
<!DOCTYPE svg PUBLIC "-//W3C//DTD SVG 1.1//EN" "http://www.w3.org/Graphics/SVG/1.1/DTD/svg11.dtd" >
<svg xmlns="http://www.w3.org/2000/svg" xmlns:xlink="http://www.w3.org/1999/xlink" version="1.1" viewBox="0 -205 1024 1024">
  <g transform="matrix(1 0 0 -1 0 819)">
   <path fill="currentColor"
d="M573 338c40 -3 72 -35 75 -75l-1 -261c0 -95 -78 -173 -173 -173h-140c-70 0 -127 52 -157 100c-55 88 -131 216 -131 216c-9 20 -12 37 -12 50c0 21 8 34 17 43c11 13 26 21 43 21c29 0 39 -9 60 -39c20 -28 35 -50 35 -50l-3 351v1c0 22 8 49 25 62s29 17 46 17
c13 0 37 -1 56 -20c10 -10 22 -31 22 -46v-55c11 9 22 13 32 13c40 0 72 -30 75 -70c8 3 13 5 23 5c40 0 80 -35 80 -75v-20c8 3 18 5 28 5zM94 208c-10 0 -16 -6 -16 -16c0 -7 2 -17 8 -27c0 0 73 -125 131 -213c23 -35 67 -78 117 -78h140c70 0 125 56 125 126l-4 263
c0 15 -12 27 -27 27s-28 -12 -28 -27l-1 -70v-5c0 -11 -10 -21 -21 -21c-1 0 -3 1 -4 1c-11 0 -20 10 -20 21v4l1 160c0 15 -15 28 -30 28s-30 -11 -30 -28l-1 -117c0 -10 -10 -21 -20 -21h-4c-11 0 -19 10 -21 21l1 182c0 15 -13 25 -28 28c-15 0 -27 -13 -27 -28l-1 -182
c0 -10 -10 -21 -20 -21h-4c-11 0 -19 10 -21 21l-3 292c0 12 -16 30 -28 30c-13 0 -29 -12 -29 -37v-3l3 -413c0 -15 -12 -27 -28 -27c-9 0 -17 4 -22 12l-71 103c-5 8 -9 12 -17 15zM723 684c76.1211 0 170.845 37.5918 232 64h4c17 0 31 -13 31 -29c0 -8 -4 -16 -10 -21
c-70.0273 -29.7988 -166.045 -68 -256 -68c-51 0 -84 16 -99 47c-8 26 -31 53 -66 53c-43 0 -112 -33 -206 -99c-5 -3 -11 -5 -18 -5c-17 0 -28 14 -28 28c0 9 5 16 11 21c107 74 182 110 240 110c11 0 21 -2 31 -4c41 -13 74 -42 89 -81c4 -9 18 -16 45 -16z" />
  </g>

</svg>
