<?xml version="1.0" encoding="utf-8"?>
<!-- Generator: Adobe Illustrator 21.1.0, SVG Export Plug-In . SVG Version: 6.00 Build 0)  -->
<svg version="1.1" id="Layer_3" xmlns="http://www.w3.org/2000/svg" xmlns:xlink="http://www.w3.org/1999/xlink" x="0px" y="0px"
	 viewBox="0 0 30 30" style="enable-background:new 0 0 30 30;" xml:space="preserve">
<style type="text/css">
	.st0{fill:#8A9AA7;}
</style>
<title>icon-bbb</title>
<path class="st0" d="M11.3,25.5c-0.3,0-0.7-0.1-1-0.3l-8.4-7.4c-0.6-0.4-0.8-0.9-0.6-1.5c0.2-0.6,0.8-1.1,1.3-1.1
	c0.3,0,0.6,0.2,0.9,0.5l7.5,6.6L26.5,4.7l0.1,0c0.2-0.1,0.5-0.2,0.7-0.2c0.5,0,1,0.3,1.3,0.7c0.2,0.4,0.3,0.8,0.2,1.2l0,0.1
	L12.2,25.1C12,25.4,11.7,25.5,11.3,25.5z"/>
</svg>
