<svg xmlns="http://www.w3.org/2000/svg" viewBox="0 0 30 30"><defs><style>.cls-1{fill:none;}.cls-2{fill:#8a9aa7;}</style></defs><title>icon-bbb</title><g id="Layer_3" data-name="Layer 3"><rect class="cls-1" x="12.87" y="23.06" width="4.27" height="1.75"/><path class="cls-1" d="M25.05,6.1H5a.56.56,0,0,0-.56.56V21.11a.56.56,0,0,0,.56.56h20.1a.56.56,0,0,0,.56-.56V6.66A.56.56,0,0,0,25.05,6.1Z"/><path class="cls-2" d="M27.18,3.28a.75.75,0,0,0-1.06,0l-1.5,1.45H5A2,2,0,0,0,3,6.66V21.11a2,2,0,0,0,2,1.95h.59l-2.7,2.6a.75.75,0,0,0,0,1.06.75.75,0,0,0,1.06,0l3.83-3.68h3.77v1.75H9.35a.7.7,0,1,0,0,1.39h11.3a.7.7,0,1,0,0-1.39H18.52V23.06h6.53A2,2,0,0,0,27,21.11V6.66a2,2,0,0,0-.7-1.49l.86-.83A.75.75,0,0,0,27.18,3.28ZM5,21.67a.56.56,0,0,1-.56-.56V6.66A.56.56,0,0,1,5,6.1H23.18L7,21.67Zm12.18,3.14H12.87V23.06h4.26ZM25.61,6.66V21.11a.56.56,0,0,1-.56.56H9.15L25.28,6.15A.55.55,0,0,1,25.61,6.66Z"/></g></svg>