<?xml version="1.0" standalone="no"?>
<!DOCTYPE svg PUBLIC "-//W3C//DTD SVG 1.1//EN" "http://www.w3.org/Graphics/SVG/1.1/DTD/svg11.dtd" >
<svg xmlns="http://www.w3.org/2000/svg" xmlns:xlink="http://www.w3.org/1999/xlink" version="1.1" viewBox="0 -205 1024 1024">
  <g transform="matrix(1 0 0 -1 0 819)">
   <path fill="currentColor"
d="M979.697 708.979c4.08594 0.270508 8.62988 -0.482422 13.7783 -3.46582c6.86523 -3.97754 14.8379 -11.9443 18.8105 -20.25c3.97266 -8.30664 3.95215 -17.0186 2.15039 -23.1523c-0.958984 -3.2627 -4.35742 -7.375 -29.291 -29.0605
c10.127 -15.3643 16.0547 -33.7217 16.0547 -53.4033v-57.1602v-458.957v-56.8262c0 -26.7764 -10.9824 -51.1523 -28.5391 -68.7891c-17.6367 -17.6367 -42.0127 -28.5391 -68.7891 -28.5391h-153.903c-1.2832 -0.240234 -2.64941 -0.3125 -4.0918 -0.3125
c-1.36328 0 -2.72949 0.0722656 -4.0918 0.3125h-222.715c-1.28223 -0.240234 -2.62793 -0.3125 -4.07031 -0.3125c-1.36328 0 -2.72949 0.0722656 -4.0918 0.3125h-227.767c-1.28223 -0.240234 -2.62793 -0.3125 -4.07129 -0.3125
c-1.3623 0 -2.72852 0.0722656 -4.0918 0.3125h-150.104c-45.667 -37.9932 -66.2324 -54.5029 -70.46 -55.4277c-6.46289 -1.41406 -15.8672 -1.41699 -24.5508 2.92285c-8.68359 4.33887 -16.6221 13.0146 -20.6055 20.9814
c-3.9834 7.96582 -3.99219 15.1562 -2.90234 19.874c0.651367 2.82031 6.02051 8.30762 40.7725 37.9336c-0.818359 0.760742 -1.69238 1.4668 -2.48438 2.25488c-17.6367 17.5566 -28.5381 42.0127 -28.5381 68.7891v56.8262v458.957v57.1602
c0 26.7764 10.9814 51.1523 28.5381 68.7891c17.6367 17.5566 42.0137 28.5391 68.7891 28.5391h165.637h235.93h230.877h157.995c8.78906 0 17.29 -1.29688 25.4072 -3.50781c36.3506 29.5752 43.4346 34.2979 46.4717 34.9482
c1.2666 0.270508 2.58398 0.473633 3.94629 0.563477zM113.434 630.086c-13.8682 0 -26.4551 -5.7041 -35.5947 -14.8438c-9.13867 -9.13867 -14.8223 -21.7256 -14.8223 -35.5947v-33.6738h192.547v84.1123h-142.13zM302.558 630.086v-84.1123h189.019v84.1123h-189.019z
M538.486 630.086v-84.1123h183.904v84.1123h-183.904zM769.279 630.086v-84.1123h6.1377c8.33008 6.94727 22.7432 19.0283 30.3975 25.4062c30.3301 25.2754 50.4717 41.9463 70.709 58.7061h-107.244zM948.778 601.882
c-16.2148 -13.7695 -40.4238 -34.1953 -66.1797 -55.9082h71.6289v33.6738c0 8.01074 -2.08398 15.4961 -5.44922 22.2344zM63.0166 499v-412.046h163.987c56.7891 47.626 122.755 102.905 194.677 163.152v157.266h0.0830078c0 4.64941 1.34863 9.29395 4.1543 13.3818
c7.45605 10.582 22.0488 13.1582 32.6309 5.7832l94.8643 -66.1592c61.1455 51.1719 114.537 95.791 165.825 138.622h-204.238h-235.93h-216.054zM826.857 499c-57.7051 -48.5791 -135.458 -113.856 -214.133 -180l10.417 -7.26465
c2.56543 -1.60352 4.87891 -3.84766 6.72266 -6.49316c7.375 -10.6621 4.65332 -25.1709 -5.92871 -32.5469l-163.946 -113.361c-4.00781 -3.28613 -9.21094 -5.28125 -14.8223 -5.28125c-7.39355 0 -13.9014 3.46094 -18.2051 8.78906
c-32.4453 -27.2627 -60.9922 -51.29 -90.2715 -75.8877h178.31h230.877h208.434v412.046h-127.453zM63.0166 40.0439v-33.3398c0 -13.8691 5.68359 -26.4561 14.8223 -35.5947c1.71582 -1.71582 3.67188 -3.17773 5.61621 -4.63477
c21.9844 18.5205 48.7373 40.9795 85.6152 71.9199c0.493164 0.414062 1.46777 1.23438 1.96289 1.64941h-108.017zM302.558 40.0439v-83.7783h189.019v83.7783h-189.019zM538.486 40.0439v-83.7783h183.904v83.7783h-183.904zM769.279 40.0439v-83.7783h134.53
c13.8691 0 26.4561 5.7041 35.5947 14.8438c9.13965 9.13867 14.8232 21.7256 14.8232 35.5947v33.3398h-184.948zM255.563 18.75c-9.22168 -7.74609 -25.1016 -21.1006 -33.4863 -28.1426c-23.042 -19.3506 -24.1572 -20.126 -41.1064 -34.3418h74.5928v62.4844z" />
  </g>

</svg>
