<svg xmlns="http://www.w3.org/2000/svg" viewBox="0 0 30 30"><defs><style>.cls-1{fill:none;}.cls-2{fill:#8a9aa7;}</style></defs><title>bbb_mobile_icons</title><g id="Layer_3" data-name="Layer 3"><path class="cls-1" d="M20.09,7.05h3.28L19.43,3.1V6.39A.67.67,0,0,0,20.09,7.05Z"/><path class="cls-1" d="M20.09,8.86a2.48,2.48,0,0,1-2.48-2.47V1.82H6a.66.66,0,0,0-.66.66v25a.66.66,0,0,0,.66.66H24a.66.66,0,0,0,.66-.66V8.86Z"/><path class="cls-2" d="M29,.79a1,1,0,0,0-1.41,0l-3.94,4L18.9,0H6A2.48,2.48,0,0,0,3.52,2.48V24.85L.58,27.79a1,1,0,0,0,0,1.42,1,1,0,0,0,.71.29,1,1,0,0,0,.7-.29l1.55-1.55A2.47,2.47,0,0,0,6,30H24a2.48,2.48,0,0,0,2.48-2.48V8.6a2.5,2.5,0,0,0-.73-1.75l-.7-.7L29,2.21A1,1,0,0,0,29,.79ZM19.43,3.1,22.35,6l-1,1H20.09a.67.67,0,0,1-.66-.66ZM5.34,2.48A.66.66,0,0,1,6,1.82H17.61V6.39a2.49,2.49,0,0,0,2,2.42l-3.68,3.67v-.71a.89.89,0,1,0-1.78,0v2.49l-3.55,3.55a.88.88,0,0,0-1.2.83.81.81,0,0,0,.06.31L5.34,23Zm8.77,14.61v4.15L12,19.16ZM24.66,8.86V27.52a.66.66,0,0,1-.66.66H6a.66.66,0,0,1-.66-.66V25.86l5.44-5.44L15,24.65l5.38-5.38a.89.89,0,0,0,.26-.63.88.88,0,0,0-.26-.63.91.91,0,0,0-1.26,0l-3.23,3.23V15.31l6.45-6.45Z"/></g></svg>