<svg xmlns="http://www.w3.org/2000/svg" viewBox="0 0 30 30"><defs><style>.cls-1{fill:#8a9aa7;}</style></defs><title>bbb_mobile_icons</title><g id="Layer_4" data-name="Layer 4"><path class="cls-1" d="M21.75,26.76A4.4,4.4,0,0,1,19.32,26,54.6,54.6,0,0,1,4,10.68a4.48,4.48,0,0,1,.58-5.61l.53-.52a4.47,4.47,0,0,1,6.32,0l.82.82A4.49,4.49,0,0,1,12.8,11,53.9,53.9,0,0,0,19,17.2a4.44,4.44,0,0,1,2.44-.72h0a4.4,4.4,0,0,1,3.16,1.31l.82.81a4.48,4.48,0,0,1,0,6.32l-.52.53A4.51,4.51,0,0,1,21.75,26.76ZM8.24,5.24A2.49,2.49,0,0,0,6.49,6L6,6.49a2.46,2.46,0,0,0-.33,3.09A52.8,52.8,0,0,0,20.42,24.36a2.47,2.47,0,0,0,3.1-.33l.52-.52A2.47,2.47,0,0,0,24,20l-.82-.82a2.53,2.53,0,0,0-3.49,0,1,1,0,0,1-1.34.07,56,56,0,0,1-7.66-7.66,1,1,0,0,1,.07-1.34,2.41,2.41,0,0,0,.72-1.74,2.45,2.45,0,0,0-.72-1.75L10,6A2.45,2.45,0,0,0,8.24,5.24Z"/></g></svg>