<svg xmlns="http://www.w3.org/2000/svg" viewBox="0 0 30 30"><defs><style>.cls-1{fill:#8a9aa7;}</style></defs><title>bbb_mobile_icons</title><g id="Layer_3" data-name="Layer 3"><path class="cls-1" d="M7.12,28.88a1.77,1.77,0,0,1-1.73-2.06L6.74,19,1,13.4a1.76,1.76,0,0,1,1-3L9.88,9.26,13.42,2.1a1.77,1.77,0,0,1,1.58-1h0a1.74,1.74,0,0,1,1.57,1L20.1,9.24,28,10.4a1.76,1.76,0,0,1,1,3L23.27,19l1.34,7.87a1.77,1.77,0,0,1-.7,1.72,1.75,1.75,0,0,1-1.85.13L15,25l-7.07,3.7A1.72,1.72,0,0,1,7.12,28.88Z"/></g></svg>