<svg xmlns="http://www.w3.org/2000/svg" viewBox="0 0 30 30"><defs><style>.cls-1{fill:#8a9aa7;}</style></defs><title>icon-bbb</title><g id="Layer_3" data-name="Layer 3"><path class="cls-1" d="M15,30A15,15,0,1,1,30,15,15,15,0,0,1,15,30ZM15,1.88A13.13,13.13,0,1,0,28.13,15,13.14,13.14,0,0,0,15,1.88Z"/><path class="cls-1" d="M13.43,17.59V17a3.45,3.45,0,0,1,.37-1.68,4.77,4.77,0,0,1,1.28-1.38,7.1,7.1,0,0,0,1.41-1.34,2,2,0,0,0,.32-1.14,1.43,1.43,0,0,0-.51-1.18,2.3,2.3,0,0,0-1.47-.41,5.07,5.07,0,0,0-1.61.25l-.69.26a.89.89,0,0,1-1.13-.46h0a.91.91,0,0,1,.48-1.24A8,8,0,0,1,15,8.08,4.3,4.3,0,0,1,17.81,9a3,3,0,0,1,1.05,2.43,3.45,3.45,0,0,1-.2,1.22,3.5,3.5,0,0,1-.61,1,9.87,9.87,0,0,1-1.41,1.26A5.4,5.4,0,0,0,15.51,16a2.13,2.13,0,0,0-.29,1.18v.41Zm-.38,2.92a1.21,1.21,0,0,1,1.35-1.38,1.33,1.33,0,0,1,1,.36,1.41,1.41,0,0,1,.35,1,1.45,1.45,0,0,1-.35,1,1.3,1.3,0,0,1-1,.38,1.3,1.3,0,0,1-1-.37A1.46,1.46,0,0,1,13.05,20.51Z"/></g></svg>