<svg xmlns="http://www.w3.org/2000/svg" viewBox="0 0 30 30"><defs><style>.cls-1{fill:#8a9aa7;}</style></defs><title>icons-bbb</title><g id="Layer_3" data-name="Layer 3"><circle class="cls-1" cx="14.95" cy="22.99" r="3.89"/><path class="cls-1" d="M8.17,17.78a1.07,1.07,0,0,1-.89-.48h0a1.06,1.06,0,0,1-.16-.83,1.09,1.09,0,0,1,.51-.69A14.43,14.43,0,0,1,15,13.58a14.43,14.43,0,0,1,7.26,2.16,1.1,1.1,0,0,1,.52.7,1,1,0,0,1-.15.83l0,.06a1.06,1.06,0,0,1-1.37.28A12.34,12.34,0,0,0,15,15.72a12.34,12.34,0,0,0-6.26,1.91A1,1,0,0,1,8.17,17.78Z"/><path class="cls-1" d="M25.38,13.84a1.1,1.1,0,0,1-.61-.19,17.74,17.74,0,0,0-19.6,0,1.07,1.07,0,0,1-1.46-.25,1.09,1.09,0,0,1-.19-.83A1,1,0,0,1,4,11.85a19.88,19.88,0,0,1,22,0,1,1,0,0,1,.44.69,1.09,1.09,0,0,1-.19.82v0A1.06,1.06,0,0,1,25.38,13.84Z"/><path class="cls-1" d="M28.93,10.28a1.09,1.09,0,0,1-.69-.25A20.9,20.9,0,0,0,1.76,9.95,1.07,1.07,0,0,1,.27,9.84,1.09,1.09,0,0,1,0,9a1,1,0,0,1,.38-.73,23,23,0,0,1,29.24.09,1,1,0,0,1,.38.73,1.09,1.09,0,0,1-.27.8h0A1.06,1.06,0,0,1,28.93,10.28Z"/></g></svg>