<svg xmlns="http://www.w3.org/2000/svg" viewBox="0 0 24 24"><defs><style>.cls-1{fill:#8a9aa7;}.cls-2{fill:none;}</style></defs><title>icon-bbb</title><g id="Layer_3" data-name="Layer 3"><path class="cls-1" d="M19,22a.18.18,0,0,1-.18.18H2A.18.18,0,0,1,1.79,22V5.22A.18.18,0,0,1,2,5H15.13V3.23L2,3.25a2,2,0,0,0-2,2V22a2,2,0,0,0,2,2H18.78a2,2,0,0,0,2-2V8.87H19Z"/><path class="cls-1" d="M24,0H16.67a.85.85,0,0,0-.86.86.88.88,0,0,0,.86.85h4.4L14.63,8.15a.86.86,0,1,0,1.21,1.21l6.44-6.44v4.4a.86.86,0,1,0,1.71,0Z"/><path class="cls-2" d="M-3,0H24V27H-3Z"/></g></svg>