<svg xmlns="http://www.w3.org/2000/svg" viewBox="0 0 30 30"><defs><style>.cls-1{fill:#8a9aa7;}</style></defs><g id="Layer_5" data-name="Layer 5"><path class="cls-1" d="M20.76,8.84h0a.67.67,0,0,1,1,.22,11.6,11.6,0,0,1,1.76,5.86,11.66,11.66,0,0,1-1.73,5.82.67.67,0,0,1-1,.23h0a.67.67,0,0,1-.21-.88,10.33,10.33,0,0,0,1.57-5.17,10.36,10.36,0,0,0-1.59-5.2A.66.66,0,0,1,20.76,8.84Z"/><path class="cls-1" d="M24,24A.68.68,0,0,1,23.8,23a14.66,14.66,0,0,0,0-16.2A.67.67,0,0,1,24,5.92h0a.66.66,0,0,1,.95.16,16,16,0,0,1,0,17.73A.67.67,0,0,1,24,24Z"/><path class="cls-1" d="M16.66,27a.73.73,0,0,1-.52-.21L8.47,19.11H4.82a2.41,2.41,0,0,1-2.41-2.42V13.31a2.42,2.42,0,0,1,2.41-2.42H8.47l7.67-7.68a.74.74,0,0,1,.8-.15.72.72,0,0,1,.45.67V26.27a.72.72,0,0,1-.45.67A.71.71,0,0,1,16.66,27ZM4.82,12.35a1,1,0,0,0-1,1v3.38a1,1,0,0,0,1,1H8.77a.69.69,0,0,1,.51.21l6.65,6.65v-19L9.28,12.13a.7.7,0,0,1-.51.22Z"/></g></svg>