<?xml version="1.0" standalone="no"?>
<!DOCTYPE svg PUBLIC "-//W3C//DTD SVG 1.1//EN" "http://www.w3.org/Graphics/SVG/1.1/DTD/svg11.dtd" >
<svg xmlns="http://www.w3.org/2000/svg" xmlns:xlink="http://www.w3.org/1999/xlink" version="1.1" viewBox="0 -205 1024 1024">
  <g transform="matrix(1 0 0 -1 0 819)">
   <path fill="currentColor"
d="M111.444 674.971h165.625h235.931h230.882h158.009c26.7754 0 51.1465 -10.9824 68.7832 -28.5391c17.6367 -17.6367 28.5391 -42.0078 28.5391 -68.7832v-57.1592v-458.956v-56.8389c0 -26.7754 -10.9824 -51.1465 -28.5391 -68.7832
c-17.6367 -17.6367 -42.0078 -28.5391 -68.7832 -28.5391h-153.921c-1.28223 -0.240234 -2.64551 -0.321289 -4.08789 -0.321289c-1.36328 0 -2.72656 0.0810547 -4.08887 0.321289h-222.704c-1.28223 -0.240234 -2.64551 -0.321289 -4.08887 -0.321289
c-1.3623 0 -2.72559 0.0810547 -4.08789 0.321289h-227.755c-1.28223 -0.240234 -2.64551 -0.321289 -4.08789 -0.321289c-1.36328 0 -2.72656 0.0810547 -4.08887 0.321289h-161.536c-26.7764 0 -51.1475 10.9824 -68.7842 28.5391s-28.5391 42.0078 -28.5391 68.7832
v56.8389v458.956v57.1592c0 26.7754 10.9824 51.1465 28.5391 68.7832c17.6367 17.5566 42.0078 28.5391 68.7842 28.5391zM456.562 424.529l164.583 -114.799c2.56543 -1.60352 4.89062 -3.84863 6.73438 -6.49414c7.375 -10.6621 4.64941 -25.1719 -5.93262 -32.5479
l-163.941 -113.355c-4.00879 -3.28711 -9.21875 -5.29102 -14.8311 -5.29102c-12.9873 0 -23.4893 10.502 -23.4893 23.4883v229.839h0.0810547c0 4.65039 1.3623 9.2998 4.16797 13.3877c7.45605 10.582 22.0459 13.1475 32.6279 5.77246zM767.29 38.0439v-83.7744h134.521
c13.8691 0 26.4551 5.69238 35.5938 14.8311c9.13965 9.13867 14.8311 21.7256 14.8311 35.5938v33.3496h-184.945zM720.393 -45.7305v83.7744h-183.903v-83.7744h183.903zM489.592 -45.7305v83.7744h-189.034v-83.7744h189.034zM253.58 -45.7305v83.7744h-192.562v-33.3496
c0 -13.8682 5.69238 -26.4551 14.8311 -35.5938s21.7256 -14.8311 35.5947 -14.8311h142.136zM61.0186 84.9414h216.051h235.931h230.882h208.434v412.059h-208.434h-230.882h-235.931h-216.051v-412.059zM720.393 543.898v84.1748h-183.903v-84.0947h183.903v-0.0800781z
M767.29 628.073v-84.0947h184.945v33.6699c0 13.8691 -5.69141 26.4551 -14.8311 35.5938c-9.13867 9.13965 -21.7246 14.8311 -35.5938 14.8311h-134.521zM489.592 543.898v84.1748h-189.034v-84.0947h189.034v-0.0800781zM253.58 543.898v84.1748h-142.136
c-13.8691 0 -26.4561 -5.69141 -35.5947 -14.8311c-9.13867 -9.13867 -14.8311 -21.7246 -14.8311 -35.5938v-33.6699h192.562v-0.0800781z" />
  </g>

</svg>
