<?xml version="1.0" encoding="utf-8"?>
<!-- Generator: Adobe Illustrator 21.1.0, SVG Export Plug-In . SVG Version: 6.00 Build 0)  -->
<svg version="1.1" id="Layer_1" xmlns="http://www.w3.org/2000/svg" xmlns:xlink="http://www.w3.org/1999/xlink" x="0px" y="0px"
	 viewBox="0 0 30 30" style="enable-background:new 0 0 30 30;" xml:space="preserve">
<style type="text/css">
	.st0{fill:#8A9AA7;}
</style>
<g id="Layer_1_1_">
</g>
<g id="Layer_2">
</g>
<g id="Layer_3">
	<g>
		<path class="st0" d="M26.5,5.7L20.8,0H10.1c-1.1,0-2,0.9-2,2v3.1H5c-1.1,0-2,0.9-2,2V28c0,1.1,0.9,2,2,2h14.9c1.1,0,2-0.9,2-2
			v-3.1H25c1.1,0,2-0.9,2-2V7.1C27,6.5,26.9,6.1,26.5,5.7z M24.5,5.9h-2.7c-0.3,0-0.5-0.2-0.5-0.5V2.6L24.5,5.9z M14.6,6.7v3.8
			c0,1.1,0.9,2,2,2h3.8V28c0,0.3-0.2,0.5-0.5,0.5H5c-0.3,0-0.5-0.2-0.5-0.5V7.2c0-0.3,0.2-0.5,0.5-0.5H14.6z M16.1,10.4V7.7l3.3,3.3
			h-2.7C16.3,11,16.1,10.7,16.1,10.4z M25.6,22.8c0,0.3-0.2,0.5-0.5,0.5H22v-11c0-0.5-0.2-1.1-0.6-1.4l-5.7-5.7H9.6V2
			c0-0.3,0.2-0.5,0.5-0.5h9.6v3.8c0,1.1,0.9,2,2,2h3.8L25.6,22.8L25.6,22.8z"/>
	</g>
</g>
<g id="Layer_4">
</g>
<g id="Layer_5">
</g>
</svg>
