<svg xmlns="http://www.w3.org/2000/svg" viewBox="0 0 30 30"><defs><style>.cls-1{fill:#8a9aa7;}</style></defs><title>bbb_mobile_icons</title><g id="Layer_5" data-name="Layer 5"><path class="cls-1" d="M28.62,6.53a3.06,3.06,0,0,0-.92-.73C26.58,5,21.28,4.67,15.13,4.67S3.42,5,2.32,5.8a2.44,2.44,0,0,0-1,.73C.23,8,.07,10.13,0,15s.23,7,1.35,8.44a3,3,0,0,0,1,.74C3.42,25,9,25.28,15.13,25.33S26.58,25,27.7,24.16a2.69,2.69,0,0,0,.92-.74C29.77,21.93,30,19.82,30,15S29.77,8,28.62,6.53ZM8.76,23.23c-3.9,0-6.26-3-6.26-7.79S5.09,7.7,8.38,7.7c3.61,0,5.62,2.23,5.94,6H10.64c-.11-1.53-.88-2.41-2.09-2.41-1.36,0-2.18,1.45-2.18,4.3,0,2.07.36,4,2.32,4,1.25,0,1.84-1.08,2-2.5H14.4C14.05,20.93,11.87,23.23,8.76,23.23Zm12.85,0c-3.9,0-6.26-3-6.26-7.79S17.94,7.7,21.23,7.7c3.61,0,5.62,2.23,5.93,6H23.49c-.11-1.53-.88-2.41-2.09-2.41s-2.18,1.45-2.18,4.3c0,2.07.36,4,2.32,4,1.25,0,1.84-1.08,2-2.5h3.72C26.9,20.93,24.72,23.23,21.61,23.23Z"/></g></svg>