<svg xmlns="http://www.w3.org/2000/svg" viewBox="0 0 35 30"><defs><style>.cls-1{fill:#8a9aa7;}</style></defs><title>bbb-svg</title><g id="Layer_3" data-name="Layer 3"><path class="cls-1" d="M31.6,14.85s0,0,0-.06A14.23,14.23,0,0,0,17.47.5,14.22,14.22,0,0,0,3.35,14.45,8.07,8.07,0,0,0,8,29.06a.93.93,0,0,0,.93-.94V13.87A.93.93,0,0,0,8,12.94a7.85,7.85,0,0,0-2.7.48,12.25,12.25,0,0,1,24.41.43A7.85,7.85,0,0,0,27,13.38a.93.93,0,0,0-.93.94V28.56a.93.93,0,0,0,.93.94A8.07,8.07,0,0,0,31.6,14.85Z"/></g></svg>