<svg xmlns="http://www.w3.org/2000/svg" viewBox="0 0 30 30"><defs><style>.cls-1{fill:#8a9aa7;}.cls-2{fill:none;}</style></defs><title>icon-bbb</title><g id="Layer_3" data-name="Layer 3"><path class="cls-1" d="M10.05,25h0a1,1,0,0,1-1-1l.46-13.76a1,1,0,0,1,1-1,1,1,0,0,1,1,1L11.05,24A1,1,0,0,1,10.05,25Z"/><path class="cls-1" d="M15,25a1,1,0,0,1-1-1V10.19a1,1,0,0,1,2,0V24A1,1,0,0,1,15,25Z"/><path class="cls-1" d="M19.95,25a1,1,0,0,1-1-1l-.46-13.76a1,1,0,0,1,1-1h0a1,1,0,0,1,1,1l.46,13.76a1,1,0,0,1-1,1Z"/><path class="cls-2" d="M18,3.58a1,1,0,0,0-1-1H13a1,1,0,0,0-1,1v.34H18Z"/><path class="cls-2" d="M20,5.92H7.43l-.91,21a.57.57,0,0,0,.57.54H22.91a.57.57,0,0,0,.57-.54l-.91-21Z"/><path class="cls-1" d="M27.54,3.92H20V3.58a3,3,0,0,0-3-3H13a3,3,0,0,0-3,3v.34H2.46a1,1,0,0,0,0,2h3L4.52,26.85a2.57,2.57,0,0,0,2.57,2.57H22.91a2.57,2.57,0,0,0,2.57-2.57L24.57,5.92h3a1,1,0,0,0,0-2ZM12,3.58a1,1,0,0,1,1-1H17a1,1,0,0,1,1,1v.34H12ZM22.91,27.42H7.09a.57.57,0,0,1-.57-.54l.91-21H22.57l.91,21A.57.57,0,0,1,22.91,27.42Z"/></g></svg>