<svg xmlns="http://www.w3.org/2000/svg" viewBox="0 0 30 30"><defs><style>.cls-1{fill:#8a9aa7;}</style></defs><title>icon-bbb</title><g id="Layer_3" data-name="Layer 3"><path class="cls-1" d="M15,30.08a15,15,0,1,1,15-15A15,15,0,0,1,15,30.08ZM15,2A13.12,13.12,0,1,0,28.13,15.08,13.14,13.14,0,0,0,15,2Z"/><path class="cls-1" d="M13.29,20.69a1.64,1.64,0,0,1,.44-1.24A1.78,1.78,0,0,1,15,19a1.73,1.73,0,0,1,1.25.43,1.9,1.9,0,0,1,0,2.45,1.7,1.7,0,0,1-1.25.44,1.75,1.75,0,0,1-1.27-.43A1.62,1.62,0,0,1,13.29,20.69Zm1.86-3.34h-.27a1.11,1.11,0,0,1-1.11-1.05L13.39,9A1.11,1.11,0,0,1,14.5,7.82h1A1.11,1.11,0,0,1,16.65,9l-.38,7.32A1.11,1.11,0,0,1,15.16,17.35Z"/></g></svg>