<svg xmlns="http://www.w3.org/2000/svg" viewBox="0 0 30 30"><defs><style>.cls-1{fill:none;}.cls-2{fill:#8a9aa7;}</style></defs><title>icon-bbb</title><g id="Layer_3" data-name="Layer 3"><path class="cls-1" d="M20.09,7h3.28L19.43,3.1V6.39A.66.66,0,0,0,20.09,7Z"/><path class="cls-1" d="M20.09,8.86a2.48,2.48,0,0,1-2.48-2.48V1.82H6a.66.66,0,0,0-.66.66v25a.66.66,0,0,0,.66.66H24a.66.66,0,0,0,.66-.66V8.86Z"/><path class="cls-2" d="M25.75,6.85,18.9,0H6A2.48,2.48,0,0,0,3.52,2.48v25A2.48,2.48,0,0,0,6,30H24a2.48,2.48,0,0,0,2.48-2.48V8.6A2.49,2.49,0,0,0,25.75,6.85ZM19.43,3.1,23.37,7H20.09a.66.66,0,0,1-.66-.66ZM24,28.18H6a.66.66,0,0,1-.66-.66v-25A.66.66,0,0,1,6,1.82H17.61V6.39a2.48,2.48,0,0,0,2.48,2.48h4.57V27.52A.66.66,0,0,1,24,28.18Z"/><path class="cls-2" d="M15,24.65,9.62,19.27A.89.89,0,0,1,10.88,18l3.23,3.23V11.77a.89.89,0,1,1,1.78,0v9.46L19.12,18a.91.91,0,0,1,1.26,0,.89.89,0,0,1,0,1.26Z"/></g></svg>