<svg xmlns="http://www.w3.org/2000/svg" viewBox="0 0 30 30"><defs><style>.cls-1{fill:none;}.cls-2{fill:#8a9aa7;}</style></defs><title>icon-bbb</title><g id="Layer_3" data-name="Layer 3"><path class="cls-1" d="M28,3.92H8.43a.5.5,0,0,0-.5.5V8.85H21.57a2,2,0,0,1,2,2v9.36H28a.5.5,0,0,0,.5-.5V4.42A.5.5,0,0,0,28,3.92Z"/><path class="cls-1" d="M21.57,10.35H2a.5.5,0,0,0-.5.5V26.14a.5.5,0,0,0,.31.46.5.5,0,0,0,.19,0H21.57a.5.5,0,0,0,.5-.5V10.85A.5.5,0,0,0,21.57,10.35Z"/><path class="cls-2" d="M28,2.42H8.43a2,2,0,0,0-2,2V8.85H2a2,2,0,0,0-2,2V26.13a2,2,0,0,0,2,2H21.57a2,2,0,0,0,2-2h0V21.71H28a2,2,0,0,0,2-2V4.42A2,2,0,0,0,28,2.42ZM22.07,20.21v5.93a.5.5,0,0,1-.5.5H2a.5.5,0,0,1-.19,0,.5.5,0,0,1-.31-.46V10.85a.5.5,0,0,1,.5-.5H21.57a.5.5,0,0,1,.5.5Zm6.43-.5a.5.5,0,0,1-.5.5H23.57V10.85a2,2,0,0,0-2-2H7.93V4.42a.5.5,0,0,1,.5-.5H28a.5.5,0,0,1,.5.5Z"/><g id="path4739"><path class="cls-2" d="M4.47,22.9a.75.75,0,0,1-.62-1.17c2.23-3.35,3.95-4.91,5.56-5.07A3.65,3.65,0,0,1,12.32,18c.33.33,1.4.19,3.38-1.22a26.23,26.23,0,0,0,2.88-2.43.75.75,0,0,1,1.06,1.06A27.5,27.5,0,0,1,16.57,18c-2.47,1.76-4.25,2.12-5.31,1.06a2.19,2.19,0,0,0-1.7-.87c-1.08.11-2.58,1.59-4.46,4.41A.75.75,0,0,1,4.47,22.9Z"/></g></g></svg>