<svg xmlns="http://www.w3.org/2000/svg" viewBox="0 0 30 30"><defs><style>.cls-1{fill:none;}.cls-2{fill:#8a9aa7;}</style></defs><title>icon-bbb</title><g id="Layer_3" data-name="Layer 3"><path class="cls-1" d="M23.64,5.63H1.94v2.5h21.7m-19-.51a.74.74,0,1,1,.74-.74A.74.74,0,0,1,4.66,7.61Zm3,0a.74.74,0,1,1,.74-.74A.74.74,0,0,1,7.61,7.61Zm3,0a.74.74,0,1,1,.74-.74A.74.74,0,0,1,10.57,7.61Z"/><polyline class="cls-1" points="23.64 10.06 1.94 10.06 1.94 12.7"/><polyline class="cls-1" points="1.94 14.64 1.94 24.37 28.07 24.37 28.07 10.06 25.57 10.06"/><polyline class="cls-1" points="25.57 8.12 28.07 8.12 28.07 5.63 25.57 5.63"/><path class="cls-2" d="M1.71,3.69A1.71,1.71,0,0,0,0,5.4V24.6a1.71,1.71,0,0,0,1.71,1.71H28.29A1.71,1.71,0,0,0,30,24.6V5.4a1.71,1.71,0,0,0-1.71-1.71Zm26.36,6.37V24.37H1.94V10.06ZM1.94,8.12V5.63H28.06v2.5Z"/><circle class="cls-2" cx="4.66" cy="6.88" r="0.74"/><circle class="cls-2" cx="7.61" cy="6.88" r="0.74"/><circle class="cls-2" cx="10.57" cy="6.88" r="0.74"/></g></svg>