<svg xmlns="http://www.w3.org/2000/svg" viewBox="0 0 30 30"><defs><style>.cls-1{fill:#8a9aa7;}</style></defs><g id="Layer_5" data-name="Layer 5"><path class="cls-1" d="M27.77,3.69a1,1,0,0,0,0-1.42,1,1,0,0,0-1.41,0L21.65,7V4.75h.47a2.38,2.38,0,1,0,0-4.75H7.88a2.38,2.38,0,1,0,0,4.75h.47v6.17c0,.55-.53.86-1.66,1.38s-2.61,1.23-2.61,2.9v1.9A1.91,1.91,0,0,0,6,19H9.57L2.23,26.31a1,1,0,0,0,1.41,1.42L12.41,19h.17v8.63A1.89,1.89,0,0,0,13.14,29l.47.47a1.9,1.9,0,0,0,2.69,0l.48-.47a1.93,1.93,0,0,0,.55-1.34V19H24a1.91,1.91,0,0,0,1.9-1.9V15.2c0-1.09-1-1.66-2.12-2.27s-2.15-1.2-2.15-2V9.79ZM6,17.1V15.2c0-.43.57-.73,1.52-1.18,1.16-.54,2.75-1.29,2.75-3.1V4.75a1.9,1.9,0,0,0-1.9-1.9H7.88a.48.48,0,1,1,0-1H22.12a.48.48,0,1,1,0,1h-.47a1.9,1.9,0,0,0-1.9,1.9V8.86L11.48,17.1Zm16.9-2.51a6.88,6.88,0,0,1,1.14.73V17.1H15.43V27.63L15,28.1l-.48-.47V17.1h-.17l5.52-5.5C20.19,13.1,21.72,14,22.88,14.59Z"/></g></svg>