<svg xmlns="http://www.w3.org/2000/svg" viewBox="0 0 30 30"><defs><style>.cls-1{fill:#8a9aa7;}</style></defs><title>icon-bbb</title><g id="Layer_3" data-name="Layer 3"><g id="path4739"><path class="cls-1" d="M5.69,20.61a1,1,0,0,1-.79-1.48c2.84-4.26,5-6.25,7.08-6.46a4.65,4.65,0,0,1,3.7,1.65c.42.43,1.78.24,4.3-1.56a33.38,33.38,0,0,0,3.66-3.1A1,1,0,0,1,25,11a35,35,0,0,1-3.9,3.3c-3.14,2.24-5.41,2.7-6.76,1.35a2.79,2.79,0,0,0-2.16-1.1c-1.38.14-3.29,2-5.68,5.62A1,1,0,0,1,5.69,20.61Z"/></g><path id="rect4195" class="cls-1" d="M27.45,4.64a.64.64,0,0,1,.64.64V24.73a.64.64,0,0,1-.64.64H2.55a.64.64,0,0,1-.64-.64V5.27a.64.64,0,0,1,.64-.64H27.45m0-1.91H2.55A2.55,2.55,0,0,0,0,5.27V24.73a2.55,2.55,0,0,0,2.55,2.55H27.45A2.55,2.55,0,0,0,30,24.73V5.27a2.55,2.55,0,0,0-2.55-2.55Z"/></g></svg>