<svg xmlns="http://www.w3.org/2000/svg" viewBox="0 0 30 30"><defs><style>.cls-1{fill:#8a9aa7;}</style></defs><g id="Layer_5" data-name="Layer 5"><path class="cls-1" d="M22.26,4.29a.84.84,0,0,0-1.19,0L18.22,7.13V2a.82.82,0,0,0-.52-.77.83.83,0,0,0-.91.18L7.94,10.26H3.74A2.79,2.79,0,0,0,1,13.05V17a2.79,2.79,0,0,0,2.79,2.79H5.59L.75,24.57A.84.84,0,0,0,1.34,26a.81.81,0,0,0,.59-.25l6-6,8.84,8.84a.83.83,0,0,0,.59.25.71.71,0,0,0,.32-.07.82.82,0,0,0,.52-.77V9.5l4-4A.85.85,0,0,0,22.26,4.29ZM3.74,18.06A1.12,1.12,0,0,1,2.62,17v-3.9a1.12,1.12,0,0,1,1.12-1.11H8.28a.84.84,0,0,0,.6-.25L16.54,4V8.81L7.27,18.06ZM16.54,26l-7.4-7.41,7.4-7.39Z"/><path class="cls-1" d="M21.62,8.91h0a.78.78,0,0,1,1.11.26,13.49,13.49,0,0,1,2,6.76,13.57,13.57,0,0,1-2,6.71.79.79,0,0,1-1.11.27h0a.78.78,0,0,1-.25-1,11.92,11.92,0,0,0,1.81-6,12,12,0,0,0-1.83-6A.76.76,0,0,1,21.62,8.91Z"/><path class="cls-1" d="M25.3,26.36a.79.79,0,0,1-.18-1.07,16.9,16.9,0,0,0,0-18.68.77.77,0,0,1,.18-1.06h0a.77.77,0,0,1,1.09.19,18.46,18.46,0,0,1,0,20.45.76.76,0,0,1-1.09.18Z"/></g></svg>