<svg xmlns="http://www.w3.org/2000/svg" viewBox="0 0 30 30"><defs><style>.cls-1{fill:#8a9aa7;}</style></defs><title>bbb-svg</title><g id="Layer_3" data-name="Layer 3"><path class="cls-1" d="M15.07,22.26a6.2,6.2,0,0,0,6.18-6.18V11.83L11.77,21.3A5.92,5.92,0,0,0,15.07,22.26Z"/><path class="cls-1" d="M19.43,1.82A6,6,0,0,0,15.07,0,6,6,0,0,0,10.7,1.82,6,6,0,0,0,8.88,6.18v9.89A6.59,6.59,0,0,0,9,17L21.12,4.89A6,6,0,0,0,19.43,1.82Z"/><path class="cls-1" d="M6.2,16.24a1,1,0,0,0-2,0,10.56,10.56,0,0,0,1,4.52l1.52-1.52A8.6,8.6,0,0,1,6.2,16.24Z"/><path class="cls-1" d="M14.07,26.86V28H7.82a1,1,0,1,0,0,2H22.31a1,1,0,0,0,0-2H16.07V26.86a10.66,10.66,0,0,0,9.87-10.62,1,1,0,0,0-2,0,8.67,8.67,0,0,1-8.66,8.66h-.43A8.6,8.6,0,0,1,9.8,23.26L8.37,24.68A10.61,10.61,0,0,0,14.07,26.86Z"/><path class="cls-1" d="M2.85,28a1.37,1.37,0,0,1-1-2.35L26.18,1.38a1.41,1.41,0,0,1,1.94,0,1.37,1.37,0,0,1,0,1.94L3.82,27.6A1.36,1.36,0,0,1,2.85,28Z"/></g></svg>