<svg xmlns="http://www.w3.org/2000/svg" viewBox="0 0 30 30"><defs><style>.cls-1{fill:none;}.cls-2{fill:#8a9aa7;}</style></defs><title>icon-bbb</title><g id="Layer_3" data-name="Layer 3"><path class="cls-1" d="M24.46,11.92H5.54v2.18H24.46M7.92,13.65A.64.64,0,1,1,8.56,13,.64.64,0,0,1,7.92,13.65Zm2.57,0a.64.64,0,1,1,.64-.64A.64.64,0,0,1,10.49,13.65Zm2.57,0a.64.64,0,1,1,.64-.64A.64.64,0,0,1,13.07,13.65Z"/><polyline class="cls-1" points="24.46 15.78 5.54 15.78 5.54 18.08"/><path class="cls-1" d="M5.34,10.23H24.46V5.61H1.69V18.08H3.86V11.72A1.49,1.49,0,0,1,5.34,10.23Z"/><path class="cls-1" d="M24.46,1.75H1.69V3.92H24.46ZM4.06,3.48a.64.64,0,1,1,.64-.64A.64.64,0,0,1,4.06,3.48Zm2.57,0a.64.64,0,1,1,.64-.64A.64.64,0,0,1,6.64,3.48Zm2.57,0a.64.64,0,1,1,.64-.64A.64.64,0,0,1,9.21,3.48Z"/><polyline class="cls-1" points="5.54 19.77 5.54 28.25 28.31 28.25 28.31 15.78 26.14 15.78"/><polyline class="cls-1" points="26.14 14.09 28.31 14.09 28.31 11.92 26.14 11.92"/><circle class="cls-2" cx="4.06" cy="2.84" r="0.64"/><circle class="cls-2" cx="6.64" cy="2.84" r="0.64"/><circle class="cls-2" cx="9.21" cy="2.84" r="0.64"/><path class="cls-2" d="M28.51,10.23H26.14V1.55A1.49,1.49,0,0,0,24.66.06H1.49A1.49,1.49,0,0,0,0,1.55V18.28a1.49,1.49,0,0,0,1.49,1.49H3.86v8.68a1.49,1.49,0,0,0,1.49,1.49H28.51A1.49,1.49,0,0,0,30,28.45V11.72A1.49,1.49,0,0,0,28.51,10.23ZM1.69,1.75H24.46V3.92H1.69Zm0,16.33V5.61H24.46v4.62H5.34a1.49,1.49,0,0,0-1.49,1.49v6.36Zm26.63-2.3V28.25H5.54V15.78ZM5.54,14.09V11.92H28.31v2.18Z"/><circle class="cls-2" cx="7.92" cy="13.01" r="0.64"/><circle class="cls-2" cx="10.49" cy="13.01" r="0.64"/><circle class="cls-2" cx="13.07" cy="13.01" r="0.64"/></g></svg>