<?xml version="1.0" encoding="UTF-8"?>
<svg width="30px" height="22px" viewBox="0 0 30 22" version="1.1" xmlns="http://www.w3.org/2000/svg" xmlns:xlink="http://www.w3.org/1999/xlink">
    <title>icon-bbb-closed-caption-stop</title>
    <g id="Page-1" stroke="none" stroke-width="1" fill="none" fill-rule="evenodd">
        <g id="icon-bbb-closed-caption-stop" transform="translate(0.000000, 0.004135)" fill="#8A9AA7" fill-rule="nonzero">
            <g id="Group" transform="translate(0.000000, 0.058068)">
                <path d="M4.25510027,16.6717863 C3.10493219,15.3125362 2.47160079,13.3069143 2.47160079,10.8170569 C2.47160079,6.01121479 5.09577489,3.03364437 8.39761794,3.03364437 C12.0241683,3.03364437 14.0584792,5.27442912 14.3827518,9.0774603 L10.6679611,9.0774603 C10.5501623,7.51477918 9.78338356,6.63020169 8.57453344,6.63020169 C7.18876782,6.63020169 6.36330706,8.10420772 6.36330706,10.9639794 C6.36330706,12.4205981 6.54891619,13.8054944 7.32743132,14.5135911 L15.5037962,8.77100962 C16.1323461,5.18053785 18.4296395,3.03320969 21.2585487,3.03320969 C22.0005506,3.03320969 22.6747421,3.12710096 23.2806885,3.30923264 L26.853773,0.799814536 C24.8711893,0.249072679 20.2952938,-1.44778127e-16 15.1169294,-1.44778127e-16 C8.99400139,-1.44778127e-16 3.42790078,0.351657587 2.31424597,1.1423438 C1.99214675,1.25970789 1.55268344,1.6109308 1.31795526,1.87478266 C0.234293497,3.33966037 0.0586820447,5.47829489 0,10.341515 L0,11.4547351 C0,15.4833662 0.315578996,17.4190043 1.31534717,18.7365249 L4.25553495,16.6717863 L4.25510027,16.6717863 Z" id="Path"></path>
                <path d="M28.8828677,2.24643561 L25.4810479,4.63588153 C26.4721224,5.67129361 27.0524226,7.1796395 27.2141243,9.0774603 L23.5288919,9.0774603 C23.4445636,7.95858931 23.027269,7.18789846 22.3430799,6.83971833 L19.43984,8.87881071 C19.3016112,9.46258839 19.2246725,10.158514 19.2246725,10.964414 C19.2246725,13.0578417 19.5785035,15.0034775 21.5536977,15.0034775 C22.8216645,15.0034775 23.4110931,13.9124261 23.5584502,12.4679784 L27.3027994,12.4679784 C26.9489684,16.3301263 24.7673003,18.6591515 21.6419381,18.6591515 C17.9771357,18.6591515 15.6520227,16.0323693 15.363394,11.7416251 L14.329286,12.4679784 L14.4705576,12.4679784 C14.1167266,16.3301263 11.9055002,18.6591515 8.78057262,18.6591515 C7.83861713,18.6591515 6.98533673,18.4852788 6.23246783,18.1544859 L3.64219891,19.9736293 C5.86907384,20.4474325 10.322389,20.6373884 15.1169294,20.68303 L15.7615625,20.68303 C21.6501971,20.68303 26.6012229,20.3022488 27.6853193,19.5111279 C28.0074186,19.3646401 28.4177582,19.0129825 28.622928,18.7495653 C29.7657065,17.2846876 30,15.1756115 30,10.341515 C30,5.89993625 29.8022198,3.70913991 28.8833024,2.24643561 L28.8828677,2.24643561 Z" id="Path"></path>
            </g>
            <path d="M0.984119624,20.9445287 L0.560304857,20.3407557 C0.377738495,20.080816 0.440332676,19.7217688 0.700272401,19.5392024 L28.3725513,0.104578586 C28.632491,-0.0779877751 28.9915382,-0.0153935941 29.1741046,0.24454613 L29.5979193,0.848319168 C29.7804857,1.10825889 29.7178915,1.46730607 29.4579518,1.64987243 L1.78567289,21.0844963 C1.52573316,21.2670626 1.16668599,21.2044685 0.984119624,20.9445287 Z" id="Path"></path>
        </g>
    </g>
</svg>