<svg xmlns="http://www.w3.org/2000/svg" viewBox="0 0 30 30"><defs><style>.cls-1{fill:#8a9aa7;}</style></defs><title>icon</title><g id="Layer_3" data-name="Layer 3"><path class="cls-1" d="M7.12,28.79a1.77,1.77,0,0,1-1.73-2.06l1.35-7.85L1,13.3a1.75,1.75,0,0,1,1-3L9.88,9.16,13.42,2A1.77,1.77,0,0,1,15,1h0a1.74,1.74,0,0,1,1.57,1L20.1,9.15,28,10.31a1.75,1.75,0,0,1,1,3l-5.7,5.56,1.34,7.87a1.76,1.76,0,0,1-2.55,1.85l-7-3.7-7.07,3.7A1.72,1.72,0,0,1,7.12,28.79ZM15,23.14a1.84,1.84,0,0,1,.82.2l7.05,3.71-1.32-7.87a1.74,1.74,0,0,1,.51-1.56l5.7-5.56-7.89-1.18a1.75,1.75,0,0,1-1.33-1L15,2.78h0L11.46,9.92a1.75,1.75,0,0,1-1.33,1L2.25,12l5.69,5.59a1.72,1.72,0,0,1,.51,1.55L7.1,27l7.08-3.68A1.84,1.84,0,0,1,15,23.14Z"/></g></svg>