<?xml version="1.0" encoding="utf-8"?>
<!-- Generator: Adobe Illustrator 21.1.0, SVG Export Plug-In . SVG Version: 6.00 Build 0)  -->
<svg version="1.1" id="Layer_3" xmlns="http://www.w3.org/2000/svg" xmlns:xlink="http://www.w3.org/1999/xlink" x="0px" y="0px"
	 viewBox="0 0 30 30" style="enable-background:new 0 0 30 30;" xml:space="preserve">
<style type="text/css">
	.st0{fill:#8A9AA7;}
</style>
<title>icon-bbb</title>
<path class="st0" d="M2.8,17.5c0,6.6,5.4,12,12,12c0.2,0.1,0.4,0.1,0.6,0c0.5-0.2,0.8-0.8,0.6-1.3c-0.2-0.5-0.8-0.8-1.3-0.6l0,0
	c-5.6,0-10.1-4.5-10.1-10.1S9.1,7.4,14.7,7.4h9l-3.5,3.5l0,0c-0.3,0.3-0.3,0.9,0,1.2c0.3,0.3,0.9,0.3,1.2,0l5.7-5.7l-5.7-5.7
	c-0.3-0.3-0.9-0.3-1.2,0l0,0c-0.3,0.3-0.3,0.9,0,1.2l3.5,3.6h-9C8.1,5.5,2.7,10.9,2.8,17.5z"/>
</svg>
