<?xml version="1.0" encoding="utf-8"?>
<!-- Generator: Adobe Illustrator 27.3.0, SVG Export Plug-In . SVG Version: 6.00 Build 0)  -->
<svg version="1.1" id="Layer_3" xmlns="http://www.w3.org/2000/svg" xmlns:xlink="http://www.w3.org/1999/xlink" x="0px" y="0px"
	 viewBox="0 0 30 30" style="enable-background:new 0 0 30 30;" xml:space="preserve">
<style type="text/css">
	.st0{fill:#8A9AA7;}
</style>
<path class="st0" d="M9,27c-1.5,0-3.1-0.6-4.2-1.8c-2.3-2.3-2.3-6.1,0-8.5l2-2c0.3-0.3,0.9-0.3,1.2,0c0.3,0.3,0.3,0.9,0,1.2l-2,2
	c-1.7,1.7-1.7,4.4,0,6.1c1.6,1.6,4.4,1.6,6.1,0l5.1-5.1c0.3-0.3,0.6-0.7,0.8-1.2c1-2.1,0.1-4.7-2-5.7c-0.4-0.2-0.6-0.7-0.4-1.1
	c0.2-0.4,0.7-0.6,1.1-0.4c3,1.4,4.3,5,2.8,8c-0.3,0.6-0.7,1.2-1.2,1.7l-5.1,5.1C12.1,26.4,10.5,27,9,27z M13.6,19.6
	c-0.1,0-0.2,0-0.4-0.1c-0.6-0.3-1.2-0.7-1.7-1.2c-1.1-1.1-1.8-2.6-1.8-4.2c0-1.6,0.6-3.1,1.8-4.2l5.1-5.1c2.3-2.3,6.1-2.3,8.5,0
	c2.3,2.3,2.3,6.1,0,8.5l-2,2c-0.3,0.3-0.9,0.3-1.2,0c-0.3-0.3-0.3-0.9,0-1.2l2-2c1.7-1.7,1.7-4.4,0-6.1c-1.7-1.7-4.4-1.7-6.1,0
	l-5.1,5.1c-0.8,0.8-1.3,1.9-1.3,3c0,1.1,0.4,2.2,1.3,3c0.3,0.3,0.7,0.6,1.2,0.8c0.4,0.2,0.6,0.7,0.4,1.1
	C14.3,19.5,14,19.6,13.6,19.6z"/>
</svg>
