<svg xmlns="http://www.w3.org/2000/svg" viewBox="0 0 30 30"><defs><style>.cls-1{fill:#8a9aa7;}</style></defs><title>icon-bbb</title><g id="Layer_3" data-name="Layer 3"><polygon class="cls-1" points="13.95 10.65 12.52 10.65 12.52 12.08 13.95 12.08 13.95 10.65 13.95 10.65"/><polygon class="cls-1" points="17.48 10.65 16.05 10.65 16.05 12.08 17.48 12.08 17.48 10.65 17.48 10.65"/><polygon class="cls-1" points="21 10.65 19.58 10.65 19.58 12.08 21 12.08 21 10.65 21 10.65"/><polygon class="cls-1" points="24.53 10.65 23.1 10.65 23.1 12.08 24.53 12.08 24.53 10.65 24.53 10.65"/><polygon class="cls-1" points="10.42 10.65 9 10.65 9 12.08 10.42 12.08 10.42 10.65 10.42 10.65"/><polygon class="cls-1" points="6.9 10.65 5.47 10.65 5.47 12.08 6.9 12.08 6.9 10.65 6.9 10.65"/><polygon class="cls-1" points="13.95 13 12.52 13 12.52 14.43 13.95 14.43 13.95 13 13.95 13"/><polygon class="cls-1" points="17.48 13 16.05 13 16.05 14.43 17.48 14.43 17.48 13 17.48 13"/><polygon class="cls-1" points="21 13 19.58 13 19.58 14.43 21 14.43 21 13 21 13"/><polygon class="cls-1" points="24.53 13 23.1 13 23.1 14.43 24.53 14.43 24.53 13 24.53 13"/><polygon class="cls-1" points="10.42 13 9 13 9 14.43 10.42 14.43 10.42 13 10.42 13"/><polygon class="cls-1" points="6.9 13 5.47 13 5.47 14.43 6.9 14.43 6.9 13 6.9 13"/><polygon class="cls-1" points="13.95 15.35 12.52 15.35 12.52 16.78 13.95 16.78 13.95 15.35 13.95 15.35"/><polygon class="cls-1" points="17.48 15.35 16.05 15.35 16.05 16.78 17.48 16.78 17.48 15.35 17.48 15.35"/><polygon class="cls-1" points="21 15.35 19.58 15.35 19.58 16.78 21 16.78 21 15.35 21 15.35"/><polygon class="cls-1" points="24.53 15.35 23.1 15.35 23.1 16.78 24.53 16.78 24.53 15.35 24.53 15.35"/><polygon class="cls-1" points="10.42 15.35 9 15.35 9 16.78 10.42 16.78 10.42 15.35 10.42 15.35"/><polygon class="cls-1" points="6.9 15.35 5.47 15.35 5.47 16.78 6.9 16.78 6.9 15.35 6.9 15.35"/><rect class="cls-1" x="7.82" y="18.67" width="14.37" height="1.43"/><path class="cls-1" d="M27.38,23.75H2.62A2.62,2.62,0,0,1,0,21.13V8.87A2.62,2.62,0,0,1,2.62,6.25H27.38A2.62,2.62,0,0,1,30,8.87V21.13A2.62,2.62,0,0,1,27.38,23.75ZM2.62,7.68A1.19,1.19,0,0,0,1.43,8.87V21.13a1.19,1.19,0,0,0,1.19,1.19H27.38a1.19,1.19,0,0,0,1.19-1.19V8.87a1.19,1.19,0,0,0-1.19-1.19Z"/></g></svg>