<svg xmlns="http://www.w3.org/2000/svg" viewBox="0 0 30 30"><defs><style>.cls-1{fill:none;}.cls-2{fill:#8a9aa7;}</style></defs><title>icon-bbb</title><g id="Layer_3" data-name="Layer 3"><rect class="cls-1" x="12.87" y="22.6" width="4.27" height="1.75"/><path class="cls-1" d="M25.05,5.64H5a.57.57,0,0,0-.56.57V20.65a.57.57,0,0,0,.56.57h20.1a.57.57,0,0,0,.56-.57V6.21A.57.57,0,0,0,25.05,5.64Z"/><path class="cls-2" d="M25.05,4.26H5A2,2,0,0,0,3,6.21V20.65a2,2,0,0,0,2,2h6.53v1.76H9.35a.69.69,0,1,0,0,1.38h11.3a.69.69,0,1,0,0-1.38H18.52V22.6h6.53a2,2,0,0,0,1.95-2V6.21A2,2,0,0,0,25.05,4.26Zm-7.92,20.1H12.87V22.6h4.26Zm8.48-3.71a.57.57,0,0,1-.56.57H5a.57.57,0,0,1-.56-.57V6.21A.57.57,0,0,1,5,5.64h20.1a.57.57,0,0,1,.56.57Z"/></g></svg>