<svg xmlns="http://www.w3.org/2000/svg" viewBox="0 0 30 30"><defs><style>.cls-1{fill:#8a9aa7;}</style></defs><title>icon-bbb-audio-off</title><g id="Layer_4" data-name="Layer 4"><path class="cls-1" d="M24.63,17.79A4.48,4.48,0,0,0,19,17.2c-.86-.73-1.7-1.5-2.52-2.29l10-10a1,1,0,0,0-1.38-1.38l-10,10c-.81-.83-1.59-1.68-2.33-2.55a4.49,4.49,0,0,0-.58-5.6l-.82-.82a4.47,4.47,0,0,0-6.32,0l-.53.52A4.48,4.48,0,0,0,4,10.68a53.82,53.82,0,0,0,6.25,7.75L3.57,25.08A1,1,0,1,0,5,26.46l6.65-6.65A53.37,53.37,0,0,0,19.32,26a4.4,4.4,0,0,0,2.43.73,4.51,4.51,0,0,0,3.18-1.31l.52-.53a4.48,4.48,0,0,0,0-6.32Zm-19-8.21A2.46,2.46,0,0,1,6,6.49L6.49,6a2.49,2.49,0,0,1,1.75-.72A2.45,2.45,0,0,1,10,6l.82.82a2.45,2.45,0,0,1,.72,1.75,2.41,2.41,0,0,1-.72,1.74,1,1,0,0,0-.07,1.34c.93,1.14,1.94,2.24,3,3.32L11.63,17A53.18,53.18,0,0,1,5.64,9.58ZM24,23.51l-.52.52a2.47,2.47,0,0,1-3.1.33,52.06,52.06,0,0,1-7.4-6l2.08-2.08c1.07,1,2.16,2,3.29,2.95a1,1,0,0,0,1.34-.07,2.53,2.53,0,0,1,3.49,0L24,20A2.47,2.47,0,0,1,24,23.51Z"/></g></svg>