<svg xmlns="http://www.w3.org/2000/svg" viewBox="0 0 30 30"><defs><style>.cls-1{fill:#8a9aa7;}</style></defs><title>icon-bbb</title><g id="Layer_4" data-name="Layer 4"><path class="cls-1" d="M16.36,28.35a.81.81,0,0,1-.57-.24L7.25,19.57H3.19A2.69,2.69,0,0,1,.5,16.88V13.12a2.69,2.69,0,0,1,2.69-2.69H7.25l8.54-8.54a.81.81,0,0,1,1.38.57V27.54a.81.81,0,0,1-.81.81ZM3.19,12a1.07,1.07,0,0,0-1.07,1.07v3.76A1.07,1.07,0,0,0,3.19,18H7.58a.81.81,0,0,1,.57.24l7.4,7.4V4.41l-7.4,7.4a.81.81,0,0,1-.57.24Z"/><path class="cls-1" d="M29.5,15l-4.17,4.17a.69.69,0,1,1-1-1l2.5-2.5H19.53a.69.69,0,1,1,0-1.38h7.33l-2.5-2.5a.71.71,0,0,1,0-1,.69.69,0,0,1,1,0Z"/></g></svg>