<svg xmlns="http://www.w3.org/2000/svg" viewBox="0 0 30 30"><defs><style>.cls-1{fill:none;}.cls-2{fill:#8a9aa7;}</style></defs><title>icon-bbb</title><g id="Layer_3" data-name="Layer 3"><polygon class="cls-1" points="6.58 14.63 5.37 14.63 5.37 27.63 24.63 27.63 24.63 14.63 23.42 14.63 6.58 14.63"/><path class="cls-1" d="M8.45,12.75H21.55V8.92A6.56,6.56,0,0,0,15,2.37"/><path class="cls-2" d="M9.86,3.64a.94.94,0,0,0,1.19.08A7,7,0,0,1,15,2.37a6.56,6.56,0,0,1,6.55,6.55v3.83H5.21A1.72,1.72,0,0,0,3.5,14.47V27.78A1.72,1.72,0,0,0,5.21,29.5H24.79a1.72,1.72,0,0,0,1.72-1.72V14.47a1.72,1.72,0,0,0-1.72-1.72H23.42V9.22A8.69,8.69,0,0,0,14.95.5a8.38,8.38,0,0,0-5,1.7,1,1,0,0,0-.07,1.44Zm14.77,24H5.37v-13H24.63Z"/></g></svg>