<svg xmlns="http://www.w3.org/2000/svg" viewBox="0 0 30 30"><defs><style>.cls-1{fill:#8a9aa7;}</style></defs><g id="Layer_5" data-name="Layer 5"><path class="cls-1" d="M18.54,8.89h0a.67.67,0,0,1,1,.22A11.66,11.66,0,0,1,21.25,15a11.61,11.61,0,0,1-1.73,5.8.67.67,0,0,1-1,.23h0a.67.67,0,0,1-.21-.88A10.38,10.38,0,0,0,19.91,15a10.28,10.28,0,0,0-1.58-5.19A.66.66,0,0,1,18.54,8.89Z"/><path class="cls-1" d="M21.72,24a.68.68,0,0,1-.15-.93,14.63,14.63,0,0,0,0-16.15A.67.67,0,0,1,21.75,6h0a.67.67,0,0,1,.95.16,16,16,0,0,1,0,17.68.68.68,0,0,1-1,.16Z"/><path class="cls-1" d="M24.56,26.82a.67.67,0,0,1-.06-.93A17.2,17.2,0,0,0,24.56,4.1a.67.67,0,0,1,.07-.93h0a.67.67,0,0,1,1,.07,18.55,18.55,0,0,1-.07,23.52.67.67,0,0,1-1,.06Z"/><path class="cls-1" d="M14.45,27a.71.71,0,0,1-.51-.21L6.28,19.13H2.65A2.41,2.41,0,0,1,.24,16.72V13.35a2.41,2.41,0,0,1,2.41-2.41H6.28l7.66-7.66a.72.72,0,0,1,.79-.16.73.73,0,0,1,.44.67V26.27a.73.73,0,0,1-.72.73ZM2.65,12.39a1,1,0,0,0-1,1v3.37a1,1,0,0,0,1,1H6.58a.74.74,0,0,1,.51.21l6.63,6.63v-19L7.09,12.18a.74.74,0,0,1-.51.21Z"/></g></svg>