<?xml version="1.0" encoding="utf-8"?>
<!-- Generator: Adobe Illustrator 21.1.0, SVG Export Plug-In . SVG Version: 6.00 Build 0)  -->
<svg version="1.1" id="Layer_1" xmlns="http://www.w3.org/2000/svg" xmlns:xlink="http://www.w3.org/1999/xlink" x="0px" y="0px"
	 viewBox="0 0 30 30" style="enable-background:new 0 0 30 30;" xml:space="preserve">
<style type="text/css">
	.st0{fill:#8A9AA7;}
</style>
<title>icon-bbb</title>
<path class="st0" d="M25.2,5.6C24,2.5,21,0.4,17.7,0.5H8.3c-1.6,0-3,1.4-3,3c0,0.6,0.3,1.3,0.7,1.8C5.1,5.8,4.6,6.7,4.6,7.7
	c0,0.7,0.2,1.3,0.7,1.8C4.4,10.1,3.9,11,3.9,12s0.6,2,1.4,2.5c-0.1,0.2-0.2,0.4-0.3,0.6c-0.5,1.1-0.2,2.3,0.6,3.1
	c0.7,0.7,1.6,1,2.5,1h6.1c-0.7,2.2-1.2,4.6-1.4,6.9c-0.1,0.9,0.2,1.8,0.7,2.5c0.4,0.5,1.1,0.8,1.7,0.8c1.6,0.1,3.1-1.1,3.3-2.7
	c0.6-2.1,1.9-5.7,2.7-6.5c1.1-1.2,1.6-1.8,1.8-2l0.2-0.2C26,15.4,26.9,9.7,25.2,5.6z"/>
</svg>
