<?xml version="1.0" standalone="no"?>
<!DOCTYPE svg PUBLIC "-//W3C//DTD SVG 1.1//EN" "http://www.w3.org/Graphics/SVG/1.1/DTD/svg11.dtd" >
<svg xmlns="http://www.w3.org/2000/svg" xmlns:xlink="http://www.w3.org/1999/xlink" version="1.1" viewBox="0 -205 1024 1024">
  <g transform="matrix(1 0 0 -1 0 819)">
   <path fill="currentColor"
d="M94 208c-10 0 -16 -6 -16 -16c0 -7 2 -17 8 -27c0 0 35 -59 75 -124l-33 -32c-42 70 -82 136 -82 136c-9 20 -12 37 -12 50c0 21 8 34 17 43c11 13 26 21 43 21c29 0 39 -9 60 -39c20 -28 35 -50 35 -50l-3 351v1c0 22 8 49 25 62s30 17 47 17c12 -1 37 -1 55 -20
c10 -10 22 -31 22 -46v-55c11 9 22 13 32 13c40 0 72 -30 75 -70c8 3 13 5 23 5c21 0 43 -10 58 -25l-34 -34c-6 7 -15 12 -24 12c-15 0 -30 -11 -30 -28v-38l-46 -45l1 148c0 15 -13 25 -28 28c-15 0 -27 -13 -27 -28l-1 -182c0 -10 -10 -21 -20 -21h-4
c-11 0 -19 10 -21 21l-3 292c0 12 -16 30 -28 30c-13 0 -29 -12 -29 -37v-3l3 -406l-34 -33c-7 1 -12 5 -16 11l-71 103c-5 8 -9 12 -17 15zM558 785c11 0 21 -2 31 -4c41 -13 74 -42 89 -81c4 -9 18 -16 45 -16c22 0 57 5 97 16l-70 -69c-9 -1 -18 -1 -26 -1
c-51 0 -84 16 -99 47c-8 25 -31 53 -66 53c-43 0 -112 -33 -206 -99c-6 -4 -11 -5 -17 -5c-15 0 -29 13 -29 28c0 8 4 15 11 21c107 74 182 110 240 110zM74 -171c-14.875 0 -40 25.1133 -40 40c0 9 5 15 5 15l896 895s5 6 14 6c7 0 16 -3 27 -14s14 -20 14 -27
c0 -9 -6 -14 -6 -14l-895 -896s-6 -5 -15 -5zM614 323c19 -14 32 -35 34 -60l-1 -261c0 -95 -78 -173 -173 -173h-140c-58 0 -107 37 -139 76l33 32c24 -31 63 -63 106 -63h140c70 0 125 56 125 126l-4 263c0 11 -7 21 -17 25zM540 250l-1 -57v-5c0 -11 -10 -21 -21 -21
c-1 0 -3 1 -4 1c-11 0 -20 10 -20 21v15z" />
  </g>

</svg>
